<?xml version="1.0" encoding="utf-8" ?>
<svg baseProfile="tiny" height="280" version="1.2" width="885" xmlns="http://www.w3.org/2000/svg" xmlns:ev="http://www.w3.org/2001/xml-events" xmlns:xlink="http://www.w3.org/1999/xlink"><defs /><rect fill="lightgray" height="50" rx="5" ry="5" stroke="black" width="50" x="5" y="5" /><text fill="black" font-size="14px" x="10" y="35">ESC</text><rect fill="lightgray" height="50" rx="5" ry="5" stroke="black" width="50" x="60" y="5" /><text fill="black" font-size="14px" x="65" y="35">1</text><rect fill="lightgray" height="50" rx="5" ry="5" stroke="black" width="50" x="115" y="5" /><text fill="black" font-size="14px" x="120" y="35">2</text><rect fill="lightgray" height="50" rx="5" ry="5" stroke="black" width="50" x="170" y="5" /><text fill="black" font-size="14px" x="175" y="35">3</text><rect fill="lightgray" height="50" rx="5" ry="5" stroke="black" width="50" x="225" y="5" /><text fill="black" font-size="14px" x="230" y="35">4</text><rect fill="lightgray" height="50" rx="5" ry="5" stroke="black" width="50" x="280" y="5" /><text fill="black" font-size="14px" x="285" y="35">5</text><rect fill="lightgray" height="50" rx="5" ry="5" stroke="black" width="50" x="335" y="5" /><text fill="black" font-size="14px" x="340" y="35">6</text><rect fill="lightgray" height="50" rx="5" ry="5" stroke="black" width="50" x="390" y="5" /><text fill="black" font-size="14px" x="395" y="35">7</text><rect fill="lightgray" height="50" rx="5" ry="5" stroke="black" width="50" x="445" y="5" /><text fill="black" font-size="14px" x="450" y="35">8</text><rect fill="lightgray" height="50" rx="5" ry="5" stroke="black" width="50" x="500" y="5" /><text fill="black" font-size="14px" x="505" y="35">9</text><rect fill="lightgray" height="50" rx="5" ry="5" stroke="black" width="50" x="555" y="5" /><text fill="black" font-size="14px" x="560" y="35">0</text><rect fill="lightgray" height="50" rx="5" ry="5" stroke="black" width="50" x="610" y="5" /><text fill="black" font-size="14px" x="615" y="35">BSPC</text><rect fill="lightgray" height="50" rx="5" ry="5" stroke="black" width="50" x="665" y="5" /><text fill="black" font-size="14px" x="670" y="35">TAB</text><rect fill="lightgray" height="50" rx="5" ry="5" stroke="black" width="50" x="720" y="5" /><text fill="black" font-size="14px" x="725" y="35">Q</text><rect fill="lightgray" height="50" rx="5" ry="5" stroke="black" width="50" x="775" y="5" /><text fill="black" font-size="14px" x="780" y="35">W</text><rect fill="lightgray" height="50" rx="5" ry="5" stroke="black" width="50" x="830" y="5" /><text fill="black" font-size="14px" x="835" y="35">E</text><rect fill="lightgray" height="50" rx="5" ry="5" stroke="black" width="50" x="5" y="60" /><text fill="black" font-size="14px" x="10" y="90">R</text><rect fill="lightgray" height="50" rx="5" ry="5" stroke="black" width="50" x="60" y="60" /><text fill="black" font-size="14px" x="65" y="90">T</text><rect fill="lightgray" height="50" rx="5" ry="5" stroke="black" width="50" x="115" y="60" /><text fill="black" font-size="14px" x="120" y="90">Y</text><rect fill="lightgray" height="50" rx="5" ry="5" stroke="black" width="50" x="170" y="60" /><text fill="black" font-size="14px" x="175" y="90">U</text><rect fill="lightgray" height="50" rx="5" ry="5" stroke="black" width="50" x="225" y="60" /><text fill="black" font-size="14px" x="230" y="90">I</text><rect fill="lightgray" height="50" rx="5" ry="5" stroke="black" width="50" x="280" y="60" /><text fill="black" font-size="14px" x="285" y="90">O</text><rect fill="lightgray" height="50" rx="5" ry="5" stroke="black" width="50" x="335" y="60" /><text fill="black" font-size="14px" x="340" y="90">P</text><rect fill="lightgray" height="50" rx="5" ry="5" stroke="black" width="50" x="390" y="60" /><text fill="black" font-size="14px" x="395" y="90">\</text><rect fill="lightgray" height="50" rx="5" ry="5" stroke="black" width="50" x="445" y="60" /><text fill="black" font-size="14px" x="450" y="90">ALT</text><rect fill="lightgray" height="50" rx="5" ry="5" stroke="black" width="50" x="500" y="60" /><text fill="black" font-size="14px" x="505" y="90">A</text><rect fill="lightgray" height="50" rx="5" ry="5" stroke="black" width="50" x="555" y="60" /><text fill="black" font-size="14px" x="560" y="90">S</text><rect fill="lightgray" height="50" rx="5" ry="5" stroke="black" width="50" x="610" y="60" /><text fill="black" font-size="14px" x="615" y="90">D</text><rect fill="lightgray" height="50" rx="5" ry="5" stroke="black" width="50" x="665" y="60" /><text fill="black" font-size="14px" x="670" y="90">F</text><rect fill="lightgray" height="50" rx="5" ry="5" stroke="black" width="50" x="720" y="60" /><text fill="black" font-size="14px" x="725" y="90">G</text><rect fill="lightgray" height="50" rx="5" ry="5" stroke="black" width="50" x="775" y="60" /><text fill="black" font-size="14px" x="780" y="90">HOME</text><rect fill="lightgray" height="50" rx="5" ry="5" stroke="black" width="50" x="830" y="60" /><text fill="black" font-size="14px" x="835" y="90">CMD+X</text><rect fill="lightgray" height="50" rx="5" ry="5" stroke="black" width="50" x="5" y="115" /><text fill="black" font-size="14px" x="10" y="145">DEL</text><rect fill="lightgray" height="50" rx="5" ry="5" stroke="black" width="50" x="60" y="115" /><text fill="black" font-size="14px" x="65" y="145">DEL</text><rect fill="lightgray" height="50" rx="5" ry="5" stroke="black" width="50" x="115" y="115" /><text fill="black" font-size="14px" x="120" y="145">H</text><rect fill="lightgray" height="50" rx="5" ry="5" stroke="black" width="50" x="170" y="115" /><text fill="black" font-size="14px" x="175" y="145">J</text><rect fill="lightgray" height="50" rx="5" ry="5" stroke="black" width="50" x="225" y="115" /><text fill="black" font-size="14px" x="230" y="145">K</text><rect fill="lightgray" height="50" rx="5" ry="5" stroke="black" width="50" x="280" y="115" /><text fill="black" font-size="14px" x="285" y="145">L</text><rect fill="lightgray" height="50" rx="5" ry="5" stroke="black" width="50" x="335" y="115" /><text fill="black" font-size="14px" x="340" y="145">;</text><rect fill="lightgray" height="50" rx="5" ry="5" stroke="black" width="50" x="390" y="115" /><text fill="black" font-size="14px" x="395" y="145">"</text><rect fill="lightgray" height="50" rx="5" ry="5" stroke="black" width="50" x="445" y="115" /><text fill="black" font-size="14px" x="450" y="145">CTRL</text><rect fill="lightgray" height="50" rx="5" ry="5" stroke="black" width="50" x="500" y="115" /><text fill="black" font-size="14px" x="505" y="145">Z</text><rect fill="lightgray" height="50" rx="5" ry="5" stroke="black" width="50" x="555" y="115" /><text fill="black" font-size="14px" x="560" y="145">X</text><rect fill="lightgray" height="50" rx="5" ry="5" stroke="black" width="50" x="610" y="115" /><text fill="black" font-size="14px" x="615" y="145">C</text><rect fill="lightgray" height="50" rx="5" ry="5" stroke="black" width="50" x="665" y="115" /><text fill="black" font-size="14px" x="670" y="145">V</text><rect fill="lightgray" height="50" rx="5" ry="5" stroke="black" width="50" x="720" y="115" /><text fill="black" font-size="14px" x="725" y="145">B</text><rect fill="lightgray" height="50" rx="5" ry="5" stroke="black" width="50" x="775" y="115" /><text fill="black" font-size="14px" x="780" y="145">SPC</text><rect fill="lightgray" height="50" rx="5" ry="5" stroke="black" width="50" x="830" y="115" /><text fill="black" font-size="14px" x="835" y="145">CMD+C</text><rect fill="lightgray" height="50" rx="5" ry="5" stroke="black" width="50" x="5" y="170" /><text fill="black" font-size="14px" x="10" y="200">BT CLR</text><rect fill="lightgray" height="50" rx="5" ry="5" stroke="black" width="50" x="60" y="170" /><text fill="black" font-size="14px" x="65" y="200">CAPS</text><rect fill="lightgray" height="50" rx="5" ry="5" stroke="black" width="50" x="115" y="170" /><text fill="black" font-size="14px" x="120" y="200">N</text><rect fill="lightgray" height="50" rx="5" ry="5" stroke="black" width="50" x="170" y="170" /><text fill="black" font-size="14px" x="175" y="200">M</text><rect fill="lightgray" height="50" rx="5" ry="5" stroke="black" width="50" x="225" y="170" /><text fill="black" font-size="14px" x="230" y="200">,</text><rect fill="lightgray" height="50" rx="5" ry="5" stroke="black" width="50" x="280" y="170" /><text fill="black" font-size="14px" x="285" y="200">.</text><rect fill="lightgray" height="50" rx="5" ry="5" stroke="black" width="50" x="335" y="170" /><text fill="black" font-size="14px" x="340" y="200">/</text><rect fill="lightgray" height="50" rx="5" ry="5" stroke="black" width="50" x="390" y="170" /><text fill="black" font-size="14px" x="395" y="200">ALT</text><rect fill="lightgray" height="50" rx="5" ry="5" stroke="black" width="50" x="445" y="170" /><text fill="black" font-size="14px" x="450" y="200">LEFT</text><rect fill="lightgray" height="50" rx="5" ry="5" stroke="black" width="50" x="500" y="170" /><text fill="black" font-size="14px" x="505" y="200">CMD+X</text><rect fill="lightgray" height="50" rx="5" ry="5" stroke="black" width="50" x="555" y="170" /><text fill="black" font-size="14px" x="560" y="200">UP</text><rect fill="lightgray" height="50" rx="5" ry="5" stroke="black" width="50" x="610" y="170" /><text fill="black" font-size="14px" x="615" y="200">GRAVE</text><rect fill="lightgray" height="50" rx="5" ry="5" stroke="black" width="50" x="665" y="170" /><text fill="black" font-size="14px" x="670" y="200">END</text><rect fill="lightgray" height="50" rx="5" ry="5" stroke="black" width="50" x="720" y="170" /><text fill="black" font-size="14px" x="725" y="200">CMD+V</text><rect fill="lightgray" height="50" rx="5" ry="5" stroke="black" width="50" x="775" y="170" /><text fill="black" font-size="14px" x="780" y="200">BSPC</text><rect fill="lightgray" height="50" rx="5" ry="5" stroke="black" width="50" x="830" y="170" /><text fill="black" font-size="14px" x="835" y="200">RAISE</text><rect fill="lightgray" height="50" rx="5" ry="5" stroke="black" width="50" x="5" y="225" /><text fill="black" font-size="14px" x="10" y="255">LEFT</text><rect fill="lightgray" height="50" rx="5" ry="5" stroke="black" width="50" x="60" y="225" /><text fill="black" font-size="14px" x="65" y="255">DOWN</text><rect fill="lightgray" height="50" rx="5" ry="5" stroke="black" width="50" x="115" y="225" /><text fill="black" font-size="14px" x="120" y="255">UP</text><rect fill="lightgray" height="50" rx="5" ry="5" stroke="black" width="50" x="170" y="225" /><text fill="black" font-size="14px" x="175" y="255">RIGHT</text></svg>